<?xml version="1.0" standalone="no"?>
<!DOCTYPE svg PUBLIC "-//W3C//DTD SVG 20010904//EN"
 "http://www.w3.org/TR/2001/REC-SVG-20010904/DTD/svg10.dtd">
<svg version="1.0" xmlns="http://www.w3.org/2000/svg"
 width="300.000000pt" height="158.000000pt" viewBox="0 0 300.000000 158.000000"
 preserveAspectRatio="xMidYMid meet">
<metadata>
Created by potrace 1.10, written by Peter Selinger 2001-2011
</metadata>
<g transform="translate(0.000000,158.000000) scale(0.100000,-0.100000)"
fill="#000000" stroke="none">
<path d="M2552 1440 c-34 -16 -88 -53 -118 -82 -128 -121 -294 -439 -294 -563
0 -33 15 -59 41 -68 20 -7 71 16 96 42 l20 22 6 -31 c10 -48 47 -59 104 -31
57 28 50 39 -11 16 -37 -14 -49 -15 -61 -5 -21 17 -19 57 6 96 21 34 21 34 99
34 l79 0 -45 -102 c-55 -126 -74 -194 -74 -271 0 -69 10 -91 50 -112 68 -35
157 -3 253 91 56 55 117 144 117 172 0 8 -9 27 -21 43 -23 33 -59 38 -80 12
-13 -15 -11 -16 14 -9 90 22 68 -88 -38 -197 -63 -64 -123 -102 -177 -112 -31
-6 -41 -3 -62 19 -50 49 -32 187 46 365 23 51 53 104 67 118 14 14 20 22 14
19 -21 -12 -14 6 25 64 l37 55 103 3 c62 2 102 7 102 13 0 7 -37 10 -105 8
-61 -2 -104 1 -102 7 1 5 7 9 12 9 47 2 192 111 220 166 41 78 -7 169 -115
218 -66 30 -132 27 -208 -9z m241 -27 c49 -34 65 -59 69 -102 3 -31 0 -35 -34
-46 -36 -13 -86 -61 -142 -137 -32 -44 -83 -72 -212 -116 -93 -32 -264 -75
-271 -69 -6 6 84 174 135 252 89 135 166 210 251 242 57 21 155 10 204 -24z
m22 -213 c-54 -55 -135 -116 -135 -102 0 5 7 15 15 22 8 7 15 10 15 7 0 -3 31
26 70 66 38 39 73 68 77 64 4 -4 -15 -30 -42 -57z m-215 -190 c0 -4 -16 -35
-37 -69 -36 -60 -37 -61 -81 -61 l-45 0 34 23 c19 12 35 30 37 39 4 23 -24 47
-48 41 -33 -9 -116 -89 -138 -133 -21 -43 -84 -100 -111 -100 -41 0 -51 43
-30 125 10 41 15 45 48 51 37 6 250 67 311 89 34 12 60 10 60 -5z m-130 -85
c-23 -24 -86 -52 -96 -42 -3 3 18 24 47 47 36 28 55 38 62 31 8 -8 3 -18 -13
-36z"/>
<path d="M2094 1260 c-24 -9 -130 -129 -160 -179 -15 -25 -25 -31 -51 -31 -38
0 -41 -9 -13 -35 17 -16 20 -16 20 -2 0 8 -6 18 -12 20 -7 3 0 6 15 6 26 1 27
-1 16 -21 -7 -13 -23 -31 -35 -41 -25 -20 -131 -230 -159 -314 -9 -29 -13 -62
-10 -74 7 -20 6 -20 -19 2 -34 29 -38 102 -6 119 14 7 20 21 20 43 0 19 14 56
35 90 51 85 47 95 -20 51 -22 -15 -54 -40 -72 -56 -48 -46 -60 -30 -19 24 38
49 42 58 27 58 -5 0 -25 -25 -46 -55 -20 -30 -40 -55 -46 -55 -5 0 -2 11 7 25
9 14 14 34 11 45 -3 10 -2 19 2 18 3 0 15 1 26 2 11 2 -7 7 -40 11 -75 11 -74
11 -113 3 -25 -5 -31 -10 -27 -24 8 -26 -67 -133 -104 -147 -17 -6 -31 -9 -31
-7 0 2 20 39 44 83 24 44 42 82 39 85 -9 9 -76 -30 -125 -74 -52 -45 -56 -45
-32 1 36 71 -19 69 -101 -3 -54 -47 -58 -39 -10 21 38 48 38 73 0 29 -13 -16
-28 -35 -32 -43 -5 -8 -23 -19 -40 -24 l-32 -9 17 34 c24 52 9 69 -62 68 l-56
-1 45 63 c25 34 45 67 45 73 0 25 -31 -6 -74 -75 -26 -41 -57 -79 -68 -85 -11
-6 -17 -17 -14 -25 3 -8 -8 -37 -24 -65 -17 -28 -37 -66 -45 -85 -9 -23 -21
-34 -34 -34 -12 0 -21 5 -21 10 0 24 53 138 90 195 22 34 40 64 40 67 0 3 -12
6 -27 6 -74 0 -94 -9 -161 -72 -109 -103 -235 -153 -363 -144 -105 8 -161 57
-144 125 25 104 191 249 336 294 67 21 97 23 118 10 12 -7 10 -14 -8 -37 -24
-31 -61 -109 -61 -130 0 -34 51 -7 90 48 23 32 30 52 30 89 l0 48 -46 7 c-63
9 -105 0 -191 -40 -164 -78 -303 -221 -303 -310 0 -36 53 -92 106 -112 34 -13
63 -16 122 -12 70 5 96 13 220 65 10 4 11 -1 6 -21 -4 -19 -2 -27 10 -32 19
-7 65 23 139 95 l58 56 -25 -45 c-13 -25 -32 -71 -42 -102 -17 -57 -18 -57
-63 -63 -246 -33 -461 -198 -461 -352 0 -50 21 -108 53 -141 122 -131 311 -3
452 305 34 74 40 82 60 77 13 -3 40 2 61 12 41 19 171 141 161 150 -3 3 -32
-20 -64 -52 -57 -56 -119 -93 -157 -94 -13 0 -16 5 -11 18 4 9 12 29 17 45 8
21 17 27 41 28 31 2 31 2 5 6 -16 2 -28 7 -28 10 0 10 62 116 93 161 53 75
150 82 132 9 -9 -35 -29 -50 -102 -77 -38 -13 -63 -28 -63 -37 0 -21 51 -8
129 33 85 45 99 44 66 -3 -55 -81 -23 -71 68 22 98 99 121 101 72 5 -14 -27
-25 -52 -25 -55 0 -17 30 3 93 60 39 36 75 65 79 65 16 0 7 -27 -24 -76 -43
-66 -59 -96 -54 -101 2 -2 29 10 59 27 53 29 55 30 60 10 4 -14 13 -20 35 -20
27 0 53 16 133 81 15 12 36 19 51 17 l25 -3 -25 -25 c-23 -24 -24 -24 -13 -2
7 12 8 22 3 22 -8 0 -32 -42 -32 -55 0 -16 31 0 60 30 25 26 39 33 54 29 30
-9 30 -8 7 -69 -26 -69 -27 -117 -3 -138 10 -10 23 -17 29 -17 6 0 8 -22 5
-57 -10 -122 71 -175 187 -122 94 42 212 170 227 245 8 44 -31 90 -69 80 -38
-9 -34 -24 6 -22 29 1 32 -2 35 -31 7 -71 -96 -201 -201 -253 -84 -42 -116
-40 -142 11 -15 29 -19 96 -9 137 4 13 23 31 44 42 35 18 100 82 100 99 0 4
-20 -12 -45 -35 -48 -46 -105 -81 -105 -64 0 5 4 10 8 10 5 0 14 19 21 43 30
102 158 345 195 369 6 4 55 8 109 8 58 0 97 4 97 10 0 6 -37 10 -90 10 -49 0
-90 4 -90 8 0 25 119 160 170 194 22 15 23 17 5 17 -11 0 -30 -4 -41 -9z
m-1464 -142 c0 -20 -40 -94 -60 -113 -29 -27 -25 -3 11 66 30 56 49 74 49 47z
m147 -205 c6 -16 -158 -166 -169 -155 -20 20 62 128 117 156 32 17 47 16 52
-1z m783 -42 c0 -33 -33 -61 -93 -76 -32 -8 -60 -15 -63 -15 -11 0 33 63 59
86 36 31 97 34 97 5z m170 3 c0 -3 -10 -23 -22 -44 -18 -31 -27 -38 -43 -34
-32 10 -32 13 10 49 38 33 55 42 55 29z m-230 -89 c0 -3 -19 -18 -42 -35 -39
-28 -88 -40 -88 -21 0 18 36 35 128 60 1 1 2 -1 2 -4z m-760 -131 c0 -3 -27
-63 -59 -134 -148 -322 -300 -445 -422 -343 -157 132 12 375 315 454 98 26
106 25 106 -10 0 -17 5 -33 12 -37 7 -4 8 -3 4 5 -13 21 4 71 25 71 10 0 19
-2 19 -6z"/>
<path d="M1927 891 c-61 -92 -80 -137 -67 -162 18 -33 44 -21 128 57 45 42 82
73 82 69 0 -4 -8 -29 -17 -55 -14 -40 -15 -51 -4 -64 17 -20 32 -20 57 -1 18
15 17 16 -13 10 -43 -9 -43 5 2 91 33 63 43 94 29 94 -3 0 -49 -41 -102 -91
-54 -50 -106 -95 -116 -101 -35 -19 -11 59 41 136 58 86 58 86 40 86 -8 0 -35
-31 -60 -69z"/>
</g>
</svg>
