<?xml version="1.0" standalone="no"?>
<!DOCTYPE svg PUBLIC "-//W3C//DTD SVG 20010904//EN"
 "http://www.w3.org/TR/2001/REC-SVG-20010904/DTD/svg10.dtd">
<svg version="1.0" xmlns="http://www.w3.org/2000/svg"
 width="339.000000pt" height="179.000000pt" viewBox="0 0 339.000000 179.000000"
 preserveAspectRatio="xMidYMid meet">
<metadata>
Created by potrace 1.10, written by Peter Selinger 2001-2011
</metadata>
<g transform="translate(0.000000,179.000000) scale(0.100000,-0.100000)"
fill="#000000" stroke="none">
<path d="M2901 1671 c-132 -45 -262 -181 -384 -401 -19 -36 -41 -85 -47 -110
-7 -25 -19 -58 -27 -73 -12 -24 -18 -27 -44 -22 -27 6 -36 0 -106 -75 -125
-133 -153 -134 -74 -4 54 88 59 118 19 112 -45 -6 -168 -208 -168 -274 0 -26
-48 -84 -69 -84 -15 0 -15 0 14 76 41 108 117 243 157 280 37 33 40 34 129 34
94 0 122 8 133 36 12 32 -22 54 -85 54 -32 0 -61 5 -64 10 -9 15 72 118 117
147 68 45 57 103 -16 89 -46 -9 -75 -34 -165 -144 -51 -63 -83 -93 -102 -97
-41 -9 -51 -27 -44 -78 5 -32 2 -53 -9 -75 -21 -41 -32 -46 -57 -28 -19 13
-26 12 -66 -7 -42 -20 -45 -21 -54 -4 -8 14 -21 16 -75 12 -49 -4 -71 -1 -89
11 -27 18 -71 14 -117 -10 -17 -9 -41 -13 -62 -9 -28 4 -43 -1 -80 -28 l-46
-33 -16 23 c-13 18 -24 21 -62 19 -40 -3 -51 -8 -76 -38 -15 -19 -32 -34 -37
-33 -4 2 -6 -5 -3 -15 5 -13 4 -14 -4 -3 -7 10 -11 10 -17 1 -4 -6 -2 -17 4
-23 8 -8 6 -16 -7 -31 -17 -21 -17 -21 5 -2 13 10 20 22 18 26 -7 11 20 31 30
22 5 -4 5 -2 1 5 -9 17 66 66 104 68 33 2 37 -9 18 -49 -9 -20 -14 -23 -25
-15 -21 18 -15 0 8 -24 12 -12 19 -17 16 -11 -11 20 135 134 170 134 20 0 16
-12 -33 -100 -25 -45 -44 -83 -41 -86 10 -10 59 21 71 45 13 24 60 39 53 17
-2 -6 -12 -11 -23 -11 -22 0 -26 -26 -4 -32 13 -4 13 -3 0 6 -8 5 -11 13 -7
17 4 4 15 1 23 -8 15 -15 15 -16 -3 -22 -11 -4 -25 -17 -31 -30 -10 -24 -10
-24 21 -15 36 10 113 63 110 75 -1 5 -7 10 -14 13 -6 2 -9 -1 -5 -7 8 -13 -44
-26 -56 -14 -5 5 16 16 54 27 64 18 80 31 96 75 9 24 7 26 -19 28 -41 3 -81
20 -74 32 8 13 36 13 55 -1 12 -8 9 -9 -10 -4 -22 5 -23 4 -7 -5 10 -7 25 -9
33 -6 8 3 14 1 14 -4 0 -5 6 -7 14 -4 10 4 16 -5 21 -27 l7 -32 19 24 c24 32
24 42 -2 34 -15 -5 -19 -4 -14 4 4 7 14 11 23 10 10 -1 25 1 35 6 32 13 29 -2
-8 -50 -36 -48 -40 -65 -15 -73 7 -3 10 0 6 6 -9 15 85 93 106 86 9 -2 19 0
23 6 3 6 10 8 15 5 5 -3 12 0 16 6 4 7 3 9 -4 5 -6 -3 -13 -2 -17 4 -3 5 3 10
14 10 24 0 25 -4 10 -31 -5 -11 -14 -17 -19 -14 -5 3 -12 0 -16 -6 -4 -8 -3
-9 4 -5 18 11 15 2 -19 -52 -17 -28 -31 -64 -31 -83 -1 -21 -8 -39 -20 -47
-10 -7 -18 -25 -18 -40 l-1 -27 -15 25 c-8 14 -13 17 -10 7 3 -10 6 -31 6 -45
0 -19 3 -23 9 -14 6 11 9 9 13 -5 4 -14 0 -19 -17 -19 -19 0 -22 6 -23 46 0
48 34 143 49 134 5 -3 6 2 3 11 -4 8 -17 18 -31 21 -19 5 -32 -1 -62 -30 -53
-52 -98 -44 -55 10 15 18 15 18 5 -3 -15 -30 5 -42 27 -17 10 10 10 13 3 6
-22 -18 -33 -15 -21 7 13 26 13 31 -5 31 -17 0 -20 16 -5 25 6 3 10 11 10 18
0 6 -7 1 -16 -11 -8 -12 -22 -22 -30 -22 -8 0 -12 -5 -9 -10 4 -6 12 -7 18 -4
7 4 -1 -7 -17 -25 -32 -33 -118 -81 -147 -81 -24 0 -33 18 -19 35 11 13 8 13
-21 3 -19 -6 -51 -22 -71 -35 -71 -44 -73 -22 -7 79 21 33 41 70 45 81 3 12
13 30 22 40 23 25 6 21 -20 -6 -76 -77 -179 -167 -192 -167 -22 0 -20 20 5 50
17 21 19 22 10 3 -11 -21 2 -43 16 -29 4 3 1 6 -6 6 -8 0 -7 9 5 31 8 17 11
28 5 25 -7 -5 -7 3 0 24 9 24 14 28 24 20 11 -9 12 -7 8 10 -3 11 -10 23 -16
27 -6 3 -7 1 -3 -5 4 -7 1 -12 -10 -12 -9 0 -55 -38 -101 -85 -46 -47 -89 -85
-94 -85 -16 0 -10 24 17 65 14 22 23 32 20 22 -4 -11 -2 -16 5 -12 17 11 4 28
-23 29 -15 1 -24 -2 -22 -6 3 -4 1 -8 -5 -8 -6 0 -32 -14 -58 -30 -33 -21 -55
-29 -71 -25 -15 4 -21 2 -17 -5 4 -6 -4 -10 -19 -10 -14 0 -27 4 -30 9 -9 14
23 34 54 34 16 0 27 5 23 10 -3 5 4 6 17 2 15 -5 20 -4 16 4 -4 6 -3 11 3 11
5 0 13 -5 16 -10 4 -6 11 -7 17 -4 7 4 7 9 -1 13 -6 4 -2 12 12 20 20 13 21
13 8 -2 -9 -11 -10 -17 -2 -17 11 0 15 13 12 38 -2 10 2 11 18 2 32 -17 67 -2
97 41 15 22 34 44 43 49 14 8 14 9 -1 10 -9 0 -28 -13 -41 -30 -14 -16 -30
-30 -34 -30 -5 0 -15 16 -22 35 -11 32 -16 35 -51 35 -21 0 -41 4 -44 9 -3 5
10 28 29 51 40 48 45 84 14 100 -30 16 -66 -11 -90 -68 -11 -26 -28 -55 -37
-65 -15 -17 -17 -17 -32 2 -18 23 -40 27 -95 17 -71 -14 -79 -18 -145 -81 -36
-34 -81 -71 -100 -83 -162 -96 -384 -101 -428 -9 -11 24 -11 35 1 72 19 53 72
125 123 166 76 60 292 158 316 143 5 -3 -1 -21 -13 -40 -27 -45 -41 -104 -28
-121 14 -16 39 -5 32 15 -4 15 -3 15 6 2 9 -13 14 -10 36 15 24 29 49 94 40
103 -9 9 -32 -18 -50 -58 -10 -21 -22 -38 -28 -37 -6 1 -14 -9 -18 -23 -6 -23
-7 -23 -8 -3 -1 12 19 52 44 89 51 75 49 89 -14 88 -52 -2 -128 -28 -195 -69
-31 -19 -62 -33 -69 -31 -7 1 -9 1 -5 -1 4 -3 -25 -34 -64 -71 -39 -37 -83
-86 -98 -109 -15 -23 -30 -39 -34 -35 -4 4 -5 -7 -1 -23 5 -23 4 -26 -4 -15
-9 12 -11 10 -11 -12 0 -14 -3 -35 -6 -45 -5 -17 -5 -17 8 -1 13 15 15 14 25
-13 13 -34 78 -68 133 -69 29 -1 31 -3 15 -10 -15 -6 -9 -9 25 -8 35 0 39 2
20 7 -19 6 -11 9 40 15 36 4 75 9 87 9 11 1 19 5 16 10 -2 4 2 7 10 7 8 0 44
15 81 33 36 18 61 28 56 22 -6 -7 -3 -11 10 -11 11 0 17 2 15 5 -3 2 3 10 13
17 16 13 16 13 -3 14 -16 0 -12 7 20 41 47 47 119 93 137 86 8 -3 6 -6 -5 -6
-10 -1 -15 -5 -12 -11 3 -5 2 -10 -4 -10 -6 0 -26 -13 -44 -30 -19 -16 -38
-26 -42 -22 -5 4 -5 1 -1 -6 4 -7 -5 -27 -23 -49 -17 -21 -31 -44 -31 -53 0
-13 -2 -13 -11 0 -8 12 -10 9 -6 -13 3 -18 -1 -31 -12 -37 -9 -5 -11 -9 -6 -9
6 0 18 6 28 13 14 11 15 15 5 19 -8 4 -7 6 5 6 9 1 56 38 104 84 48 45 83 76
78 68 -5 -10 -4 -12 3 -7 7 4 12 16 12 26 0 14 -5 18 -17 13 -16 -6 -17 -5 -2
9 22 22 74 28 74 8 0 -8 -6 -15 -14 -15 -8 0 -16 -6 -19 -14 -3 -9 0 -11 8 -6
9 5 11 4 6 -4 -4 -6 -12 -9 -17 -5 -6 3 -9 0 -8 -7 2 -8 -18 -57 -43 -109 -61
-125 -65 -140 -39 -140 15 0 33 23 73 98 29 53 51 105 50 115 -2 9 4 20 13 23
9 4 43 47 76 95 33 49 66 89 74 89 20 0 20 0 -26 -74 -26 -41 -45 -63 -54 -60
-8 3 -18 -5 -25 -18 -10 -21 -10 -21 3 -5 18 22 23 22 30 -4 4 -15 2 -19 -9
-15 -8 3 -13 2 -10 -3 3 -5 -1 -14 -9 -21 -8 -7 -15 -9 -15 -5 0 4 -6 2 -13
-4 -8 -6 -17 -9 -20 -6 -4 3 -5 2 -2 -1 2 -4 0 -16 -6 -28 -6 -14 -1 -10 15 9
14 17 26 26 26 22 0 -14 -43 -66 -51 -61 -4 2 -11 -1 -15 -7 -4 -8 -3 -9 4 -5
17 10 16 7 -21 -62 -18 -34 -37 -59 -42 -55 -4 5 -5 2 -1 -4 4 -7 18 -13 32
-13 13 0 24 -5 24 -11 0 -7 -10 -9 -25 -5 -23 6 -28 2 -45 -40 -26 -61 -26
-63 15 -54 47 11 78 31 158 108 71 69 88 71 35 4 -45 -55 -95 -95 -109 -86 -8
4 -9 3 -5 -4 9 -16 -46 -42 -89 -42 -35 0 -36 -2 -75 -86 -46 -100 -110 -208
-118 -199 -3 3 0 11 6 17 7 7 12 17 12 23 0 5 -10 -5 -21 -23 -12 -18 -23 -31
-26 -29 -2 3 13 31 33 63 21 32 57 101 81 152 35 74 41 97 32 108 -6 7 -9 24
-6 36 4 13 2 30 -3 37 -12 21 -152 -15 -256 -65 -96 -46 -104 -49 -81 -31 23
19 22 30 -3 15 -11 -7 -19 -19 -17 -27 1 -8 -3 -16 -8 -18 -6 -2 -11 6 -11 18
0 15 17 28 71 54 82 39 180 69 201 61 7 -3 14 -2 14 3 0 4 21 12 46 17 45 9
47 10 64 64 16 53 59 143 60 127 0 -5 -5 -18 -11 -30 -9 -19 -7 -18 10 3 32
40 2 45 -39 6 -56 -53 -142 -117 -153 -113 -5 1 -11 17 -12 35 -2 17 1 29 6
26 5 -3 9 0 9 5 0 15 2 15 -72 -18 -85 -39 -209 -64 -273 -56 -62 7 -151 49
-167 78 -7 12 -13 46 -14 75 -2 45 3 60 30 99 17 26 39 48 50 49 20 3 79 54
71 63 -3 2 -22 -11 -41 -30 -20 -19 -35 -29 -33 -23 12 34 148 130 257 182 71
34 85 37 173 39 l95 1 -2 -41 c0 -23 -2 -52 -3 -63 -2 -35 -88 -124 -119 -124
-21 0 -24 -2 -12 -10 24 -16 35 -12 89 31 41 33 54 50 66 92 18 61 11 112 -18
132 -31 22 -151 19 -218 -4 -113 -38 -162 -72 -298 -204 -83 -82 -111 -128
-111 -187 0 -149 185 -215 405 -145 l86 28 29 -28 c31 -30 41 -28 106 22 17
12 34 23 38 23 9 0 -3 -61 -14 -73 -4 -4 -47 -16 -96 -27 -205 -43 -379 -153
-445 -282 -16 -32 -21 -61 -22 -128 -1 -77 2 -92 26 -133 31 -52 87 -88 134
-86 l28 1 -30 8 c-16 4 -25 8 -20 9 6 1 -1 11 -15 22 -20 17 -21 20 -5 14 37
-13 110 -35 115 -35 3 0 -1 4 -8 9 -10 6 -4 10 18 15 18 3 36 3 41 0 5 -3 8 0
7 7 -2 6 2 13 9 16 18 7 9 -28 -11 -39 -9 -5 -24 -7 -32 -4 -8 3 -12 2 -9 -3
3 -5 -7 -12 -22 -14 -26 -4 -26 -4 5 -6 99 -4 231 138 354 380 52 103 53 104
90 105 47 1 123 50 183 116 25 28 45 54 45 58 0 5 15 6 34 3 32 -5 39 -1 87
51 58 63 72 70 56 27 -28 -75 31 -82 105 -13 l52 47 -28 -48 c-48 -84 -21
-119 59 -76 41 22 45 22 63 6 26 -24 42 -22 116 18 61 32 68 34 89 20 24 -15
30 -13 99 37 27 19 29 6 8 -50 -29 -76 -26 -121 10 -167 25 -32 30 -47 30 -93
0 -63 26 -114 68 -136 41 -20 131 -13 187 15 27 13 84 59 127 101 96 94 133
164 123 231 -9 59 9 74 59 50 35 -16 38 -16 88 5 52 22 52 22 73 2 16 -15 35
-20 78 -20 31 0 57 -1 57 -2 0 -2 -11 -39 -25 -83 -32 -104 -34 -203 -4 -252
29 -46 63 -61 136 -59 53 2 69 7 120 41 82 54 175 152 208 220 27 55 28 59 14
98 -8 22 -27 50 -42 61 -26 19 -30 19 -55 5 -29 -16 -43 -58 -20 -60 7 -1 18
-2 23 -4 6 -1 16 -3 23 -3 40 -5 -18 -121 -101 -200 -92 -87 -190 -127 -231
-93 -25 21 -29 93 -12 181 23 109 92 281 133 329 18 22 33 47 33 56 0 24 38
83 60 95 10 6 61 10 113 10 73 0 97 4 107 15 21 25 -3 39 -78 45 l-67 5 48 28
c182 107 221 255 99 373 -50 49 -106 71 -193 77 -56 4 -88 1 -128 -12z m237
-37 c97 -48 144 -132 122 -215 -14 -52 -75 -113 -168 -169 -40 -23 -72 -47
-72 -52 0 -5 -6 -6 -12 -2 -7 4 -10 4 -6 -1 5 -5 -2 -13 -14 -19 -12 -6 -23
-17 -26 -25 -3 -9 0 -11 9 -6 7 5 2 -9 -11 -31 -13 -21 -28 -46 -34 -56 -5 -9
-15 -14 -22 -11 -7 2 -17 -5 -24 -16 -6 -12 -7 -21 -3 -22 4 0 -1 -5 -12 -10
-19 -8 -19 -9 -1 -6 11 1 20 10 22 20 4 26 10 30 30 19 15 -9 15 -11 -9 -26
-25 -17 -99 -170 -127 -264 -11 -36 -15 -40 -28 -29 -13 10 -14 9 -4 -10 18
-33 14 -52 -5 -28 -16 20 -16 20 -8 0 4 -11 10 -33 12 -50 3 -23 2 -27 -6 -15
-8 11 -11 2 -11 -37 0 -28 -3 -60 -6 -70 -6 -17 -6 -17 8 1 14 18 15 17 21
-12 19 -94 162 -62 284 64 117 122 151 251 59 228 -31 -7 -35 10 -7 26 25 13
44 13 36 0 -3 -5 0 -7 8 -4 20 7 47 -33 47 -69 0 -15 -7 -43 -14 -62 -11 -26
-19 -33 -33 -29 -14 5 -15 4 -4 -4 12 -9 8 -18 -21 -54 -41 -50 -128 -120
-185 -149 -23 -12 -58 -19 -90 -19 -44 0 -58 5 -85 29 -30 27 -32 31 -33 112
-3 99 22 190 90 337 l44 92 -92 2 c-51 0 -98 1 -104 1 -22 -1 -15 11 30 55 46
45 59 52 51 25 -5 -16 -4 -16 8 -3 7 8 20 16 28 18 8 2 -3 -12 -25 -31 -27
-24 -44 -32 -52 -26 -7 6 -13 6 -17 0 -9 -14 4 -19 47 -16 21 1 40 -2 43 -7 3
-4 23 -8 44 -8 43 0 54 12 105 105 15 28 25 40 22 27 -3 -15 -1 -22 6 -19 17
5 19 21 5 40 -12 17 -16 16 -73 -3 -82 -28 -108 -15 -30 15 33 13 63 21 68 18
10 -6 48 7 43 16 -3 4 3 7 12 8 35 3 103 32 76 33 -6 0 -14 -3 -18 -7 -3 -4
-14 -8 -22 -9 -14 -2 -14 0 -2 14 8 9 44 53 81 98 66 80 99 104 137 104 16 0
20 7 20 33 0 58 -60 128 -135 157 -52 21 -144 16 -199 -10 -103 -49 -236 -204
-341 -395 -21 -38 -42 -72 -47 -73 -4 -2 -6 -7 -3 -12 10 -16 -17 -59 -34 -53
-10 3 -12 2 -5 -4 15 -12 25 -43 14 -43 -5 0 -12 -11 -16 -25 -5 -22 -9 -24
-22 -13 -13 11 -14 10 -4 -9 15 -28 17 -76 2 -53 -7 11 -10 3 -9 -30 0 -25 3
-39 6 -32 3 8 10 5 22 -10 16 -19 21 -20 47 -9 42 17 79 53 98 92 11 23 23 35
36 35 11 0 19 -5 17 -11 -2 -5 -11 -9 -19 -7 -8 1 -20 -10 -27 -25 l-12 -28
21 25 c24 31 25 22 3 -24 -13 -29 -14 -40 -5 -61 14 -30 33 -31 91 -5 24 11
46 18 48 16 16 -16 -59 -56 -104 -56 -37 0 -67 31 -58 59 8 27 -7 27 -31 0
-42 -47 -110 -63 -135 -33 -19 23 -20 119 -2 179 23 75 114 259 173 350 71
108 139 185 203 229 73 50 119 65 203 66 56 0 80 -5 122 -26z m-46 -29 c52
-18 106 -69 110 -105 2 -19 -4 -28 -33 -41 -33 -16 -109 -96 -172 -179 -15
-21 -52 -48 -89 -67 -75 -37 -271 -101 -335 -110 l-45 -6 33 59 c109 197 171
285 251 360 102 96 183 122 280 89z m-662 -170 c0 -8 -5 -15 -12 -15 -23 0
-80 -53 -148 -138 l-70 -87 111 -3 c96 -2 109 -5 99 -17 -10 -12 -38 -15 -124
-15 l-111 0 -67 -118 c-61 -107 -148 -301 -148 -332 0 -10 -4 -9 -17 1 -15 13
-15 12 -4 -9 12 -22 13 -22 41 -5 49 28 118 106 124 138 4 17 3 24 0 18 -3 -7
-10 -13 -15 -13 -5 0 -4 9 3 19 14 23 28 18 28 -9 0 -38 59 0 165 108 76 77
108 103 116 95 14 -14 8 -48 -9 -48 -13 0 -32 -23 -32 -39 0 -6 7 -1 15 10 15
17 15 16 1 -12 -35 -72 -54 -134 -43 -141 5 -3 7 -2 4 4 -4 6 5 15 19 22 32
14 34 14 34 -4 0 -8 -13 -21 -30 -30 -16 -9 -30 -18 -30 -21 0 -3 4 -3 8 0 5
3 15 -6 22 -19 32 -59 -27 -169 -140 -262 -84 -70 -134 -93 -198 -93 -43 0
-57 5 -84 29 -30 27 -32 31 -33 109 -1 45 2 79 7 76 4 -3 8 2 8 11 0 9 -5 13
-11 10 -13 -9 -59 3 -59 14 0 5 8 8 18 6 9 -1 24 1 33 6 12 6 19 2 28 -17 14
-32 15 -76 1 -54 -7 11 -10 0 -10 -37 0 -28 -3 -60 -6 -70 -6 -17 -6 -17 8 1
14 18 15 17 21 -12 16 -80 128 -69 243 24 23 18 45 30 49 26 5 -4 5 -1 0 7 -6
10 -4 12 5 6 9 -6 11 -4 5 5 -5 8 -4 11 2 7 6 -4 19 3 29 16 l19 22 -22 -19
c-33 -27 -28 -13 12 39 42 56 64 119 48 143 -7 11 -23 16 -42 15 -20 -1 -31 3
-28 10 2 7 11 11 20 11 9 -1 15 2 12 6 -3 5 0 10 6 12 6 2 11 17 11 33 0 17 4
44 9 62 8 24 14 30 27 26 14 -6 15 -4 5 8 -16 20 -15 31 9 57 16 17 24 19 30
10 6 -10 8 -10 8 -1 0 6 -5 15 -10 18 -12 8 -72 -53 -65 -65 7 -12 -148 -151
-162 -145 -7 2 -12 -1 -10 -7 1 -7 -7 -13 -18 -15 -16 -3 -17 -2 -5 6 10 7 11
11 3 11 -7 0 -17 -10 -24 -22 -18 -36 -81 -98 -92 -91 -6 3 -7 1 -3 -5 8 -14
-47 -44 -68 -36 -40 15 -26 72 69 271 53 111 67 132 82 127 13 -4 14 -3 5 4
-11 7 -9 16 8 45 l21 36 -20 11 c-32 17 -25 30 17 30 29 0 41 5 48 20 5 11 43
61 84 111 51 62 88 98 115 110 49 23 55 23 55 4z m790 -266 c0 -5 -53 -9 -117
-9 -82 0 -113 3 -103 10 18 12 220 11 220 -1z m-413 -51 c32 -29 30 -73 -3
-94 -18 -13 -28 -14 -36 -6 -8 8 -7 13 6 18 24 9 49 61 34 70 -7 4 -8 3 -4 -4
5 -9 -5 -11 -36 -8 -26 3 -81 -5 -140 -20 -102 -25 -128 -29 -128 -16 0 10
250 73 262 66 7 -4 8 -2 4 4 -12 20 17 13 41 -10z m93 2 c0 -6 -12 -29 -27
-52 l-28 -42 -3 44 c-3 44 7 60 41 60 9 0 17 -5 17 -10z m-640 -36 c0 -4 -20
-37 -45 -74 -25 -37 -53 -87 -64 -110 -18 -41 -19 -42 -31 -21 -10 19 -6 31
21 79 42 75 87 132 105 132 8 0 14 -3 14 -6z m393 -36 c-4 -7 -22 -37 -39 -66
-30 -49 -95 -112 -116 -112 -17 0 -26 47 -17 95 5 27 12 51 15 54 7 7 123 39
147 40 12 1 16 -3 10 -11z m-1495 -47 c6 -38 -6 -71 -23 -65 -8 4 -15 16 -15
27 0 19 1 19 13 4 10 -15 12 -13 11 15 l-1 33 -52 -2 c-29 -2 -51 2 -51 8 0 6
23 9 58 7 51 -3 57 -5 60 -27z m499 19 l29 -11 -39 -41 c-38 -40 -83 -62 -75
-36 2 6 12 12 22 14 10 1 24 8 30 15 8 9 6 9 -11 0 -27 -14 -31 0 -6 20 9 8
14 9 10 3 -3 -6 0 -11 8 -11 8 0 11 5 7 11 -4 6 -7 14 -7 18 0 3 -4 10 -9 15
-5 5 -6 2 -1 -6 5 -9 4 -12 -3 -7 -16 10 -15 26 2 26 7 0 26 -5 43 -10z m-867
-55 c-13 -14 -28 -25 -34 -25 -5 0 3 13 19 30 16 16 31 28 33 25 3 -3 -5 -16
-18 -30z m310 5 c0 -20 -7 -34 -22 -44 -31 -19 -98 -39 -105 -32 -9 9 50 79
78 93 38 20 49 16 49 -17z m480 18 c0 -7 -9 -24 -21 -38 l-20 -25 18 38 c18
39 23 45 23 25z m154 -7 c10 -15 -27 -49 -61 -56 -42 -8 -42 5 -2 39 31 27 54
33 63 17z m1086 -8 c0 -5 -10 -25 -23 -47 -18 -31 -33 -42 -80 -58 -73 -25
-86 -17 -68 41 16 54 43 71 113 71 32 0 58 -3 58 -7z m-834 -46 c-24 -59 -45
-93 -46 -75 0 24 19 70 37 90 23 26 25 22 9 -15z m-1101 -41 c-15 -25 -29 -46
-32 -46 -8 0 9 45 29 73 31 44 33 24 3 -27z m1515 14 c0 -23 -12 -31 -29 -21
-10 7 -11 13 -2 30 14 24 31 19 31 -9z m-103 -37 c2 -6 -8 -22 -23 -36 -32
-30 -27 -57 11 -57 32 0 40 -20 25 -65 -42 -128 -241 -279 -319 -242 -50 24
-51 176 -1 192 11 3 46 32 78 63 31 32 78 69 102 84 25 14 56 38 70 52 24 27
50 31 57 9z m-1177 -17 c0 -8 -4 -17 -9 -21 -12 -7 -24 12 -16 25 9 15 25 12
25 -4z m-100 -51 c0 -6 -17 -27 -37 -46 -81 -77 -123 -97 -123 -61 0 23 19 42
41 42 23 0 34 19 20 33 -6 6 -11 18 -11 27 0 13 11 16 55 16 31 -1 55 -6 55
-11z m-262 -132 c3 -44 -3 -64 -39 -135 -88 -175 -199 -309 -285 -343 -40 -15
-44 -15 -85 5 -77 36 -106 90 -99 180 8 122 174 260 391 324 46 14 91 24 99
23 11 -2 16 -17 18 -54z m-373 -52 c0 -10 -26 -42 -56 -72 -69 -67 -99 -128
-99 -198 0 -58 10 -82 48 -123 18 -19 21 -28 11 -28 -8 0 0 -9 16 -20 17 -11
25 -20 18 -20 -22 0 -81 60 -96 98 -22 54 -20 167 4 220 17 39 130 162 148
162 4 0 7 -8 6 -19z m275 -280 c0 -11 -129 -151 -140 -151 -19 0 -1 31 53 90
31 35 57 57 57 49 1 -10 3 -9 11 4 11 18 19 22 19 8z"/>
<path d="M3172 1385 c-51 -44 -114 -122 -86 -107 51 28 161 142 136 142 -4 0
-27 -16 -50 -35z"/>
<path d="M2694 1049 c-8 -14 14 -19 25 -6 8 10 7 14 -5 14 -8 0 -17 -4 -20 -8z"/>
<path d="M2443 842 c13 -13 20 -13 29 -4 7 7 8 12 3 13 -6 0 -19 2 -29 4 -18
3 -18 2 -3 -13z"/>
<path d="M3056 561 l-60 -66 64 62 c35 34 62 64 60 66 -3 2 -32 -26 -64 -62z"/>
<path d="M2302 629 c-19 -30 -8 -34 12 -4 9 14 13 25 9 25 -5 0 -14 -9 -21
-21z"/>
<path d="M2207 1039 c-9 -6 -15 -14 -12 -19 3 -4 -2 -11 -11 -14 -8 -3 -12
-10 -9 -16 3 -5 2 -10 -4 -10 -17 0 -33 -38 -19 -46 7 -4 8 -3 4 4 -4 7 -2 12
4 12 6 0 9 4 6 9 -3 5 1 12 10 15 8 3 13 10 10 15 -3 5 1 12 10 15 9 4 14 9
11 13 -4 3 1 12 11 19 20 16 14 18 -11 3z"/>
<path d="M307 549 c-26 -27 -44 -49 -40 -49 11 0 98 88 92 93 -2 3 -26 -18
-52 -44z"/>
<path d="M235 450 c-25 -55 -15 -58 11 -4 12 24 18 44 14 44 -4 0 -15 -18 -25
-40z"/>
<path d="M579 258 c-24 -29 -36 -47 -26 -39 20 16 81 91 74 91 -2 0 -24 -24
-48 -52z"/>
<path d="M320 1200 c-14 -11 -20 -20 -14 -20 6 0 19 9 29 20 23 25 17 25 -15
0z"/>
<path d="M192 1088 c-6 -6 -8 -17 -5 -26 4 -10 2 -13 -5 -8 -11 7 -48 -51 -39
-61 3 -2 8 5 12 16 3 12 11 19 16 16 5 -3 6 2 2 11 -4 11 -2 15 4 11 6 -4 18
4 27 18 16 25 8 43 -12 23z"/>
<path d="M1521 985 c-7 -19 -17 -35 -22 -35 -6 0 -8 -4 -5 -9 4 -5 0 -12 -6
-14 -10 -4 -10 -6 -1 -6 7 -1 24 22 38 49 14 28 22 50 17 50 -4 0 -14 -16 -21
-35z"/>
<path d="M965 994 c-20 -15 -12 -17 19 -5 11 4 15 10 10 13 -5 4 -18 0 -29 -8z"/>
<path d="M1894 956 c-41 -36 -42 -42 -9 -48 11 -1 23 -7 26 -11 3 -5 9 -1 12
8 5 10 3 14 -4 9 -7 -4 -10 -1 -7 7 3 8 10 13 16 12 6 -2 9 3 6 11 -3 8 0 17
7 22 8 5 10 3 4 -6 -5 -8 -4 -11 3 -6 11 7 6 36 -7 36 -4 0 -25 -15 -47 -34z"/>
<path d="M1770 980 c-7 -18 -6 -70 0 -70 4 0 10 -9 13 -21 4 -14 10 -18 18
-13 10 6 10 9 1 12 -7 2 -12 8 -12 13 0 6 6 7 13 3 9 -5 9 -4 0 6 -9 10 -8 19
4 39 12 20 12 22 1 9 -14 -17 -16 -16 -26 5 -6 12 -11 20 -12 17z"/>
<path d="M170 875 c13 -14 25 -25 27 -25 9 0 -33 49 -41 50 -5 0 1 -11 14 -25z"/>
<path d="M1339 868 c-12 -23 -12 -23 10 -4 23 21 26 26 11 26 -5 0 -15 -10
-21 -22z"/>
<path d="M1030 855 c-14 -8 -20 -14 -15 -14 6 0 21 6 35 14 14 8 21 14 15 14
-5 0 -21 -6 -35 -14z"/>
<path d="M1157 856 c-5 -11 -3 -15 5 -10 8 5 9 2 5 -9 -9 -24 0 -21 14 4 6 13
7 19 1 15 -6 -3 -12 -1 -14 6 -3 7 -7 5 -11 -6z"/>
<path d="M1447 863 c-4 -3 -2 -12 3 -19 8 -8 6 -17 -6 -28 -21 -22 -31 -12
-13 11 13 16 12 17 -4 4 -10 -8 -16 -20 -13 -28 3 -7 0 -13 -6 -13 -6 0 -9 -2
-6 -5 3 -3 22 4 42 16 29 17 34 24 25 35 -6 7 -8 18 -4 24 7 11 -8 14 -18 3z"/>
<path d="M787 718 c3 -29 7 -55 9 -56 1 -2 12 16 23 40 11 23 18 32 15 18 -4
-21 -3 -22 6 -7 16 24 3 38 -27 31 -17 -5 -24 -3 -19 4 3 6 2 13 -3 17 -7 3
-8 -14 -4 -47z"/>
<path d="M508 687 c-16 -6 -28 -15 -28 -19 0 -7 55 16 69 28 7 7 -13 2 -41 -9z"/>
<path d="M808 655 c-8 -19 -12 -35 -8 -35 8 0 33 61 27 66 -2 2 -10 -12 -19
-31z"/>
<path d="M736 503 c-30 -59 -53 -109 -51 -111 4 -4 44 70 87 161 44 94 23 64
-36 -50z"/>
</g>
</svg>
